<?xml version="1.0" encoding="UTF-8" standalone="no"?>
<!DOCTYPE svg PUBLIC "-//W3C//DTD SVG 1.1//EN"
 "http://www.w3.org/Graphics/SVG/1.1/DTD/svg11.dtd">
<!-- Generated by graphviz version 2.43.0 (0)
 -->
<!-- Title: G Pages: 1 -->
<svg width="353pt" height="436pt"
 viewBox="0.00 0.00 353.00 436.00" xmlns="http://www.w3.org/2000/svg" xmlns:xlink="http://www.w3.org/1999/xlink">
<g id="graph0" class="graph" transform="scale(1 1) rotate(0) translate(4 432)">
<title>G</title>
<polygon fill="white" stroke="transparent" points="-4,4 -4,-432 349,-432 349,4 -4,4"/>
<g id="clust1" class="cluster">
<title>cluster_root</title>
<g id="a_clust1"><a xlink:title="eventq_index=0&#10;full_system=false&#10;sim_quantum=0&#10;time_sync_enable=false&#10;time_sync_period=100000000000&#10;time_sync_spin_threshold=100000000">
<path fill="#bab6ae" stroke="#000000" d="M20,-8C20,-8 325,-8 325,-8 331,-8 337,-14 337,-20 337,-20 337,-408 337,-408 337,-414 331,-420 325,-420 325,-420 20,-420 20,-420 14,-420 8,-414 8,-408 8,-408 8,-20 8,-20 8,-14 14,-8 20,-8"/>
<text text-anchor="middle" x="172.5" y="-404.8" font-family="Arial" font-size="14.00" fill="#000000">root </text>
<text text-anchor="middle" x="172.5" y="-389.8" font-family="Arial" font-size="14.00" fill="#000000">: Root</text>
</a>
</g>
</g>
<g id="clust2" class="cluster">
<title>cluster_system</title>
<g id="a_clust2"><a xlink:title="auto_unlink_shared_backstore=false&#10;cache_line_size=64&#10;eventq_index=0&#10;exit_on_work_items=false&#10;init_param=0&#10;m5ops_base=0&#10;mem_mode=timing&#10;mem_ranges=0:2147483648&#10;memories=system.mem_ctrl.dram&#10;mmap_using_noreserve=false&#10;multi_thread=false&#10;&#10;um_work_ids=16&#10;&#13;eadfile=&#10;&#13;edirect_paths=&#10;shadow_rom_ranges=&#10;shared_backstore=&#10;symbolfile=&#10;thermal_components=&#10;thermal_model=Null&#10;work_begin_ckpt_count=0&#10;work_begin_cpu_id_exit=&#45;1&#10;work_begin_exit_count=0&#10;work_cpus_ckpt_count=0&#10;work_end_ckpt_count=0&#10;work_end_exit_count=0&#10;work_item_id=&#45;1&#10;workload=system.workload">
<path fill="#e4e7eb" stroke="#000000" d="M28,-16C28,-16 317,-16 317,-16 323,-16 329,-22 329,-28 329,-28 329,-362 329,-362 329,-368 323,-374 317,-374 317,-374 28,-374 28,-374 22,-374 16,-368 16,-362 16,-362 16,-28 16,-28 16,-22 22,-16 28,-16"/>
<text text-anchor="middle" x="172.5" y="-358.8" font-family="Arial" font-size="14.00" fill="#000000">system </text>
<text text-anchor="middle" x="172.5" y="-343.8" font-family="Arial" font-size="14.00" fill="#000000">: System</text>
</a>
</g>
</g>
<g id="clust6" class="cluster">
<title>cluster_system_mem_ctrl</title>
<g id="a_clust6"><a xlink:title="clk_domain=system.clk_domain&#10;command_window=10000&#10;disable_sanity_check=false&#10;dram=system.mem_ctrl.dram&#10;eventq_index=0&#10;mem_sched_policy=frfcfs&#10;min_reads_per_switch=16&#10;min_writes_per_switch=16&#10;power_model=&#10;power_state=system.mem_ctrl.power_state&#10;qos_policy=Null&#10;qos_priorities=1&#10;qos_priority_escalation=false&#10;qos_q_policy=fifo&#10;qos_requestors= &#160;&#160;&#160;&#160;&#160;&#160;&#160;&#160;&#160;&#160;&#160;&#160;&#160;&#160;&#10;qos_syncro_scheduler=false&#10;qos_turnaround_policy=Null&#10;static_backend_latency=10000&#10;static_frontend_latency=10000&#10;system=system&#10;write_high_thresh_perc=85&#10;write_low_thresh_perc=50">
<path fill="#bab6ae" stroke="#000000" d="M256,-24C256,-24 309,-24 309,-24 315,-24 321,-30 321,-36 321,-36 321,-102 321,-102 321,-108 315,-114 309,-114 309,-114 256,-114 256,-114 250,-114 244,-108 244,-102 244,-102 244,-36 244,-36 244,-30 250,-24 256,-24"/>
<text text-anchor="middle" x="282.5" y="-98.8" font-family="Arial" font-size="14.00" fill="#000000">mem_ctrl </text>
<text text-anchor="middle" x="282.5" y="-83.8" font-family="Arial" font-size="14.00" fill="#000000">: MemCtrl</text>
</a>
</g>
</g>
<g id="clust10" class="cluster">
<title>cluster_system_cpu</title>
<g id="a_clust10"><a xlink:title="LFSTSize=1024&#10;LQEntries=32&#10;LSQCheckLoads=true&#10;LSQDepCheckShift=4&#10;SQEntries=32&#10;SSITSize=1024&#10;activity=0&#10;backComSize=5&#10;branchPred=system.cpu.branchPred&#10;cacheLoadPorts=200&#10;cacheStorePorts=200&#10;checker=Null&#10;clk_domain=system.clk_domain&#10;commitToDecodeDelay=1&#10;commitToFetchDelay=1&#10;commitToIEWDelay=1&#10;commitToRenameDelay=1&#10;commitWidth=8&#10;cpu_id=&#45;1&#10;decodeToFetchDelay=1&#10;decodeToRenameDelay=1&#10;decodeWidth=8&#10;decoder=system.cpu.decoder&#10;dispatchWidth=8&#10;do_checkpoint_insts=true&#10;do_statistics_insts=true&#10;eventq_index=0&#10;fetchBufferSize=64&#10;fetchQueueSize=32&#10;fetchToDecodeDelay=1&#10;fetchTrapLatency=1&#10;fetchWidth=8&#10;forwardComSize=5&#10;fuPool=system.cpu.fuPool&#10;function_trace=false&#10;function_trace_start=0&#10;iewToCommitDelay=1&#10;iewToDecodeDelay=1&#10;iewToFetchDelay=1&#10;iewToRenameDelay=1&#10;interrupts=system.cpu.interrupts&#10;isa=system.cpu.isa&#10;issueToExecuteDelay=1&#10;issueWidth=8&#10;max_insts_all_threads=0&#10;max_insts_any_thread=500000000&#10;mmu=system.cpu.mmu&#10;&#10;eedsTSO=false&#10;&#10;umIQEntries=64&#10;&#10;umPhysCCRegs=1280&#10;&#10;umPhysFloatRegs=256&#10;&#10;umPhysIntRegs=256&#10;&#10;umPhysMatRegs=2&#10;&#10;umPhysVecPredRegs=32&#10;&#10;umPhysVecRegs=256&#10;&#10;umROBEntries=192&#10;&#10;umRobs=1&#10;&#10;umThreads=1&#10;power_gating_on_idle=false&#10;power_model=&#10;power_state=system.cpu.power_state&#10;progress_interval=0&#10;pwr_gating_latency=300&#10;&#13;enameToDecodeDelay=1&#10;&#13;enameToFetchDelay=1&#10;&#13;enameToIEWDelay=2&#10;&#13;enameToROBDelay=1&#10;&#13;enameWidth=8&#10;simpoint_start_insts=&#10;smtCommitPolicy=RoundRobin&#10;smtFetchPolicy=RoundRobin&#10;smtIQPolicy=Partitioned&#10;smtIQThreshold=100&#10;smtLSQPolicy=Partitioned&#10;smtLSQThreshold=100&#10;smtNumFetchingThreads=1&#10;smtROBPolicy=Partitioned&#10;smtROBThreshold=100&#10;socket_id=0&#10;squashWidth=8&#10;store_set_clear_period=250000&#10;switched_out=false&#10;syscallRetryLatency=10000&#10;system=system&#10;tracer=system.cpu.tracer&#10;trapLatency=13&#10;wbWidth=8&#10;workload=system.cpu.workload">
<path fill="#bbc6d9" stroke="#000000" d="M36,-24C36,-24 224,-24 224,-24 230,-24 236,-30 236,-36 236,-36 236,-102 236,-102 236,-108 230,-114 224,-114 224,-114 36,-114 36,-114 30,-114 24,-108 24,-102 24,-102 24,-36 24,-36 24,-30 30,-24 36,-24"/>
<text text-anchor="middle" x="130" y="-98.8" font-family="Arial" font-size="14.00" fill="#000000">cpu </text>
<text text-anchor="middle" x="130" y="-83.8" font-family="Arial" font-size="14.00" fill="#000000">: ArmO3CPU</text>
</a>
</g>
</g>
<g id="clust123" class="cluster">
<title>cluster_system_membus</title>
<g id="a_clust123"><a xlink:title="clk_domain=system.clk_domain&#10;eventq_index=0&#10;forward_latency=4&#10;frontend_latency=3&#10;header_latency=1&#10;max_outstanding_snoops=512&#10;max_routing_table_size=512&#10;point_of_coherency=true&#10;point_of_unification=true&#10;power_model=&#10;power_state=system.membus.power_state&#10;&#13;esponse_latency=2&#10;snoop_filter=system.membus.snoop_filter&#10;snoop_response_latency=4&#10;system=system&#10;use_default_range=false&#10;width=16">
<path fill="#6f798c" stroke="#000000" d="M73,-154C73,-154 309,-154 309,-154 315,-154 321,-160 321,-166 321,-166 321,-232 321,-232 321,-238 315,-244 309,-244 309,-244 73,-244 73,-244 67,-244 61,-238 61,-232 61,-232 61,-166 61,-166 61,-160 67,-154 73,-154"/>
<text text-anchor="middle" x="191" y="-228.8" font-family="Arial" font-size="14.00" fill="#000000">membus </text>
<text text-anchor="middle" x="191" y="-213.8" font-family="Arial" font-size="14.00" fill="#000000">: SystemXBar</text>
</a>
</g>
</g>
<!-- system_system_port -->
<g id="node1" class="node">
<title>system_system_port</title>
<path fill="#b6b8bc" stroke="#000000" d="M156.5,-328C156.5,-328 89.5,-328 89.5,-328 83.5,-328 77.5,-322 77.5,-316 77.5,-316 77.5,-304 77.5,-304 77.5,-298 83.5,-292 89.5,-292 89.5,-292 156.5,-292 156.5,-292 162.5,-292 168.5,-298 168.5,-304 168.5,-304 168.5,-316 168.5,-316 168.5,-322 162.5,-328 156.5,-328"/>
<text text-anchor="middle" x="123" y="-306.3" font-family="Arial" font-size="14.00" fill="#000000">system_port</text>
</g>
<!-- system_membus_cpu_side_ports -->
<g id="node5" class="node">
<title>system_membus_cpu_side_ports</title>
<path fill="#586070" stroke="#000000" d="M165,-198C165,-198 81,-198 81,-198 75,-198 69,-192 69,-186 69,-186 69,-174 69,-174 69,-168 75,-162 81,-162 81,-162 165,-162 165,-162 171,-162 177,-168 177,-174 177,-174 177,-186 177,-186 177,-192 171,-198 165,-198"/>
<text text-anchor="middle" x="123" y="-176.3" font-family="Arial" font-size="14.00" fill="#000000">cpu_side_ports</text>
</g>
<!-- system_system_port&#45;&gt;system_membus_cpu_side_ports -->
<g id="edge1" class="edge">
<title>system_system_port&#45;&gt;system_membus_cpu_side_ports</title>
<path fill="none" stroke="black" d="M123,-291.74C123,-270.36 123,-233.69 123,-208.44"/>
<polygon fill="black" stroke="black" points="126.5,-208.4 123,-198.4 119.5,-208.4 126.5,-208.4"/>
</g>
<!-- system_mem_ctrl_port -->
<g id="node2" class="node">
<title>system_mem_ctrl_port</title>
<path fill="#94918b" stroke="#000000" d="M294,-68C294,-68 264,-68 264,-68 258,-68 252,-62 252,-56 252,-56 252,-44 252,-44 252,-38 258,-32 264,-32 264,-32 294,-32 294,-32 300,-32 306,-38 306,-44 306,-44 306,-56 306,-56 306,-62 300,-68 294,-68"/>
<text text-anchor="middle" x="279" y="-46.3" font-family="Arial" font-size="14.00" fill="#000000">port</text>
</g>
<!-- system_cpu_icache_port -->
<g id="node3" class="node">
<title>system_cpu_icache_port</title>
<path fill="#959ead" stroke="#000000" d="M216,-68C216,-68 154,-68 154,-68 148,-68 142,-62 142,-56 142,-56 142,-44 142,-44 142,-38 148,-32 154,-32 154,-32 216,-32 216,-32 222,-32 228,-38 228,-44 228,-44 228,-56 228,-56 228,-62 222,-68 216,-68"/>
<text text-anchor="middle" x="185" y="-46.3" font-family="Arial" font-size="14.00" fill="#000000">icache_port</text>
</g>
<!-- system_cpu_dcache_port -->
<g id="node4" class="node">
<title>system_cpu_dcache_port</title>
<path fill="#959ead" stroke="#000000" d="M111.5,-68C111.5,-68 44.5,-68 44.5,-68 38.5,-68 32.5,-62 32.5,-56 32.5,-56 32.5,-44 32.5,-44 32.5,-38 38.5,-32 44.5,-32 44.5,-32 111.5,-32 111.5,-32 117.5,-32 123.5,-38 123.5,-44 123.5,-44 123.5,-56 123.5,-56 123.5,-62 117.5,-68 111.5,-68"/>
<text text-anchor="middle" x="78" y="-46.3" font-family="Arial" font-size="14.00" fill="#000000">dcache_port</text>
</g>
<!-- system_membus_cpu_side_ports&#45;&gt;system_cpu_icache_port -->
<g id="edge2" class="edge">
<title>system_membus_cpu_side_ports&#45;&gt;system_cpu_icache_port</title>
<path fill="none" stroke="black" d="M135.73,-152.72C147.94,-127.5 166.05,-90.13 176.57,-68.4"/>
<polygon fill="black" stroke="black" points="132.57,-151.21 131.36,-161.74 138.87,-154.26 132.57,-151.21"/>
</g>
<!-- system_membus_cpu_side_ports&#45;&gt;system_cpu_dcache_port -->
<g id="edge3" class="edge">
<title>system_membus_cpu_side_ports&#45;&gt;system_cpu_dcache_port</title>
<path fill="none" stroke="black" d="M113.53,-152.05C104.66,-126.84 91.69,-89.93 84.12,-68.4"/>
<polygon fill="black" stroke="black" points="110.31,-153.46 116.93,-161.74 116.92,-151.14 110.31,-153.46"/>
</g>
<!-- system_membus_mem_side_ports -->
<g id="node6" class="node">
<title>system_membus_mem_side_ports</title>
<path fill="#586070" stroke="#000000" d="M301,-198C301,-198 207,-198 207,-198 201,-198 195,-192 195,-186 195,-186 195,-174 195,-174 195,-168 201,-162 207,-162 207,-162 301,-162 301,-162 307,-162 313,-168 313,-174 313,-174 313,-186 313,-186 313,-192 307,-198 301,-198"/>
<text text-anchor="middle" x="254" y="-176.3" font-family="Arial" font-size="14.00" fill="#000000">mem_side_ports</text>
</g>
<!-- system_membus_mem_side_ports&#45;&gt;system_mem_ctrl_port -->
<g id="edge4" class="edge">
<title>system_membus_mem_side_ports&#45;&gt;system_mem_ctrl_port</title>
<path fill="none" stroke="black" d="M257.37,-161.74C261.55,-140.36 268.71,-103.69 273.64,-78.44"/>
<polygon fill="black" stroke="black" points="277.12,-78.88 275.6,-68.4 270.25,-77.54 277.12,-78.88"/>
</g>
</g>
</svg>
